<svg width="192" height="192" viewBox="0 0 192 192" xmlns="http://www.w3.org/2000/svg">
  <rect width="192" height="192" fill="#3b82f6" rx="32"/>
  <path d="M96 48C79.4315 48 66 61.4315 66 78V84H60C54.4772 84 50 88.4772 50 94V138C50 143.523 54.4772 148 60 148H132C137.523 148 142 143.523 142 138V94C142 88.4772 137.523 84 132 84H126V78C126 61.4315 112.569 48 96 48ZM78 78C78 68.0589 86.0589 60 96 60C105.941 60 114 68.0589 114 78V84H78V78ZM96 108C100.418 108 104 111.582 104 116C104 119.314 102.206 122.209 99.5 123.584V132C99.5 133.933 97.933 135.5 96 135.5C94.067 135.5 92.5 133.933 92.5 132V123.584C89.794 122.209 88 119.314 88 116C88 111.582 91.5817 108 96 108Z" fill="white"/>
  <text x="96" y="170" font-family="Arial, sans-serif" font-size="20" font-weight="bold" text-anchor="middle" fill="white">Mark-VIII</text>
</svg>
